<?xml version="1.0" encoding="UTF-8" standalone="no"?>
<svg
   xmlns:dc="http://purl.org/dc/elements/1.1/"
   xmlns:cc="http://creativecommons.org/ns#"
   xmlns:rdf="http://www.w3.org/1999/02/22-rdf-syntax-ns#"
   xmlns:svg="http://www.w3.org/2000/svg"
   xmlns="http://www.w3.org/2000/svg"
   xmlns:sodipodi="http://sodipodi.sourceforge.net/DTD/sodipodi-0.dtd"
   xmlns:inkscape="http://www.inkscape.org/namespaces/inkscape"
   height="48"
   width="48"
   version="1.1"
   id="svg32"
   sodipodi:docname="start-here-gnome.svg"
   inkscape:version="1.0.1 (3bc2e813f5, 2020-09-07, custom)">
  <metadata
     id="metadata38">
    <rdf:RDF>
      <cc:Work
         rdf:about="">
        <dc:format>image/svg+xml</dc:format>
        <dc:type
           rdf:resource="http://purl.org/dc/dcmitype/StillImage" />
      </cc:Work>
    </rdf:RDF>
  </metadata>
  <defs
     id="defs36" />
  <sodipodi:namedview
     pagecolor="#ffffff"
     bordercolor="#666666"
     borderopacity="1"
     objecttolerance="10"
     gridtolerance="10"
     guidetolerance="10"
     inkscape:pageopacity="0"
     inkscape:pageshadow="2"
     inkscape:window-width="1920"
     inkscape:window-height="1007"
     id="namedview34"
     showgrid="false"
     inkscape:zoom="14.895833"
     inkscape:cx="27.645203"
     inkscape:cy="26.685315"
     inkscape:window-x="0"
     inkscape:window-y="0"
     inkscape:window-maximized="1"
     inkscape:current-layer="svg32" />
  <linearGradient
     id="a"
     gradientUnits="userSpaceOnUse"
     x1="398.870518605236"
     x2="398.870518605236"
     y1="545.797962721205"
     y2="519.307634521206">
    <stop
       offset="0"
       stop-color="#3889e9"
       id="stop2" />
    <stop
       offset="1"
       stop-color="#5ea5fb"
       id="stop4" />
  </linearGradient>
  <linearGradient
     id="b"
     gradientUnits="userSpaceOnUse"
     x1="399.884280892785"
     x2="399.884280892785"
     y1="544.3259888654"
     y2="518.7817438154">
    <stop
       offset="0"
       stop-color="#1a85f2"
       id="stop7" />
    <stop
       offset="1"
       stop-color="#20bafa"
       id="stop9" />
  </linearGradient>
  <rect
     fill="none"
     height="60.00000007078"
     ry="10.000000011797"
     stroke-width="1.00000000118"
     width="20.000000023593"
     x="387.661938717454"
     y="-186.230444997694"
     id="rect30" />
  <g
     id="g14"
     transform="matrix(0.94117647,0,0,0.94117647,8,8)"
     style="fill:#00aad4">
    <g
       id="g12"
       style="fill:#00aad4">
      <path
         class="st0"
         d="m 18,0 v 11.2 c 0,2.6 2.1,4.8 4.8,4.8 H 34 C 26.4,13.6 20.4,7.6 18,0 Z"
         id="path4"
         inkscape:connector-curvature="0"
         style="fill:#00aad4" />
      <path
         class="st0"
         d="M 18,34 V 22.5 C 18,20 20,18 22.5,18 H 34 c -7.6,2.4 -13.6,8.4 -16,16 z"
         id="path6"
         inkscape:connector-curvature="0"
         style="fill:#00aad4" />
      <path
         class="st0"
         d="M 16,0 V 11.5 C 16,14 14,16 11.5,16 H 0 C 7.6,13.6 13.6,7.6 16,0 Z"
         id="path8"
         inkscape:connector-curvature="0"
         style="fill:#00aad4" />
      <path
         class="st0"
         d="M 16,34 V 22.5 C 16,20 14,18 11.5,18 H 0 c 7.6,2.4 13.6,8.4 16,16 z"
         id="path10"
         inkscape:connector-curvature="0"
         style="fill:#00aad4" />
    </g>
  </g>
</svg>
